<svg xmlns="http://www.w3.org/2000/svg" viewBox="0 0 512 512"><g id="_x30_6_Pen_Tablet"><g><path d="m312.298 42.209c-68.537 58.644-86.312 28.892-139.514 12.58-45.53-13.96-98.429 2.491-129.201 38.835-64.927 76.683-20.712 200.788 86.392 219.739 25.947 4.591 54.927 2.911 75.62 19.225 26.304 20.737 26.479 59.605 37.65 91.182 20.989 59.327 92.204 95.568 152.52 77.619s100.127-87.232 85.263-148.381c-5.594-23.012-17.596-43.866-26.531-65.798-33.404-81.997 19.432-96.932 38.394-140.974 9.409-21.852 7.333-48.284-5.371-68.399-74.255-117.578-145.106-61.397-175.222-35.628z" fill="#ebf1fd"></path><path d="m434.571 177.917v195.571c0 14.872-12.056 26.929-26.929 26.929h-303.285c-14.872 0-26.929-12.056-26.929-26.929v-195.571c0-14.872 12.056-26.929 26.929-26.929h303.286c14.872 0 26.928 12.056 26.928 26.929z" fill="#6acdf3"></path><path d="m129.464 400.425h-25.107c-14.857 0-26.929-12.071-26.929-26.929v-195.571c0-14.893 12.071-26.929 26.929-26.929h25.107c-14.857 0-26.928 12.036-26.928 26.929v195.571c0 14.857 12.071 26.929 26.928 26.929z" fill="#fff" opacity=".4"></path><path d="m402.964 378.988h-243.714c-5.621 0-10.178-4.557-10.178-10.178v-186.215c0-5.621 4.557-10.178 10.178-10.178h243.714c5.621 0 10.178 4.557 10.178 10.178v186.214c.001 5.622-4.556 10.179-10.178 10.179z" fill="#fffcff"></path><path d="m396.792 138.257-125.319 141.389-47.059 8.344 8.344-47.059 141.389-125.318c6.35-5.628 15.984-5.338 21.983.662 5.999 5.998 6.289 15.632.662 21.982z" fill="#ffc563"></path><path d="m400.572 124.71c-5.322-1.893-11.5-.857-15.964 3.107l-141.394 125.322-5.786 32.536-13 2.321 8.321-47.071 141.393-125.321c6.357-5.607 16-5.321 22 .679 2.394 2.392 3.858 5.32 4.43 8.427z" fill="#fff" opacity=".4"></path><path d="m233.642 240.146-.884.784-8.344 47.06 47.059-8.344.784-.885z" fill="#fffcff"></path><path d="m130.911 275.685c0 9.857-8 17.857-17.821 17.857-9.857 0-17.857-8-17.857-17.857 0-9.821 8-17.821 17.857-17.821 9.821-.001 17.821 7.999 17.821 17.821z" fill="#fffcff"></path><g fill="#fff"><path d="m335.387 180.589c-.914 0-1.828-.349-2.525-1.046-1.395-1.395-1.395-3.655 0-5.05l22.695-22.696c1.395-1.395 3.655-1.395 5.05 0s1.395 3.655 0 5.05l-22.695 22.696c-.697.697-1.611 1.046-2.525 1.046z"></path><path d="m311.022 204.952c-.914 0-1.828-.349-2.525-1.046-1.395-1.395-1.395-3.655 0-5.05l11.014-11.014c1.395-1.395 3.655-1.395 5.05 0s1.395 3.655 0 5.05l-11.014 11.014c-.698.698-1.611 1.046-2.525 1.046z"></path><path d="m133 206.881h-39.856c-1.972 0-3.571-1.599-3.571-3.571s1.599-3.571 3.571-3.571h39.856c1.972 0 3.571 1.599 3.571 3.571s-1.599 3.571-3.571 3.571z"></path><path d="m133 231.06h-39.856c-1.972 0-3.571-1.599-3.571-3.571s1.599-3.571 3.571-3.571h39.856c1.972 0 3.571 1.599 3.571 3.571s-1.599 3.571-3.571 3.571z"></path><path d="m133 327.488h-39.856c-1.972 0-3.571-1.599-3.571-3.571s1.599-3.571 3.571-3.571h39.856c1.972 0 3.571 1.599 3.571 3.571s-1.599 3.571-3.571 3.571z"></path><path d="m133 351.667h-39.856c-1.972 0-3.571-1.599-3.571-3.571s1.599-3.571 3.571-3.571h39.856c1.972 0 3.571 1.599 3.571 3.571s-1.599 3.571-3.571 3.571z"></path></g><path d="m104.357 403.988h303.285c16.818 0 30.5-13.682 30.5-30.5v-195.571c0-16.818-13.682-30.5-30.5-30.5h-14.197l6.02-6.792c6.867-7.748 6.512-19.554-.811-26.876-7.319-7.322-19.128-7.673-26.876-.809l-38.899 34.478h-228.522c-16.818 0-30.5 13.682-30.5 30.5v195.571c0 16.817 13.682 30.499 30.5 30.499zm272.157-285.702c4.928-4.365 12.437-4.14 17.09.513 4.656 4.656 4.881 12.162.514 17.09l-122.018 137.664-33.25-33.25zm-147.691 165.295 6.506-36.698 30.19 30.19zm1.73-45.47c-.294.358-1.05.721-1.313 2.196l-8.343 47.06c-.202 1.147.167 2.323.992 3.148.805.807 1.973 1.198 3.149.992l47.058-8.344c1.174-.209 1.826-1.005 2.19-1.309 39.386-44.436 55.26-62.346 93.833-105.866h34.843c3.643 0 6.607 2.965 6.607 6.607v186.213c0 3.643-2.965 6.607-6.607 6.607h-243.712c-3.643 0-6.607-2.965-6.607-6.607v-186.212c0-3.643 2.965-6.607 6.607-6.607h141.393zm-149.554-60.194c0-12.878 10.479-23.357 23.357-23.357h220.463l-16.118 14.286h-149.451c-7.582 0-13.75 6.168-13.75 13.75v186.213c0 7.582 6.168 13.75 13.75 13.75h243.713c7.582 0 13.75-6.168 13.75-13.75v-186.213c0-7.582-6.168-13.75-13.75-13.75h-28.512l12.662-14.286h20.528c12.878 0 23.357 10.479 23.357 23.357v195.571c0 12.878-10.479 23.357-23.357 23.357h-303.284c-12.878 0-23.357-10.479-23.357-23.357v-195.571z" fill="#281261"></path><path d="m113.09 297.114c11.795 0 21.392-9.612 21.392-21.429 0-11.797-9.596-21.394-21.392-21.394-11.816 0-21.429 9.596-21.429 21.394 0 11.816 9.613 21.429 21.429 21.429zm0-35.68c7.856 0 14.249 6.393 14.249 14.251 0 7.877-6.393 14.286-14.249 14.286-7.877 0-14.286-6.409-14.286-14.286 0-7.858 6.409-14.251 14.286-14.251z" fill="#281261"></path></g></g><g id="Layer_1"></g></svg>