<svg xmlns="http://www.w3.org/2000/svg" viewBox="0 0 512 512"><g id="_x32_5_Secure_Browser"><g><path d="m200.731 465.882c67.284-57.572 84.734-28.364 136.962-12.35 44.697 13.705 96.629-2.446 126.838-38.125 63.739-75.281 20.333-197.116-84.812-215.72-25.473-4.507-53.922-2.858-74.237-18.873-25.823-20.358-25.994-58.515-36.962-89.515-20.606-58.242-90.517-93.821-149.73-76.199s-98.296 85.636-83.704 145.668c5.491 22.591 17.275 43.064 26.046 64.595 32.793 80.497-19.076 95.159-37.692 138.396-9.237 21.453-7.199 47.401 5.273 67.149 72.898 115.425 142.453 60.271 172.018 34.974z" fill="#ebf1fd"></path><path d="m399.205 155.912v35.041c0 6.465-5.241 11.707-11.707 11.707h-274.377c-6.465 0-11.707-5.241-11.707-11.707v-35.041c0-6.465 5.241-11.707 11.707-11.707h274.377c6.466 0 11.707 5.241 11.707 11.707z" fill="#6acdf3"></path><path d="m136.476 202.652h-23.351c-6.486 0-11.711-5.224-11.711-11.711v-35.026c0-6.486 5.224-11.71 11.711-11.71h23.351c-6.486 0-11.71 5.224-11.71 11.71v35.026c0 6.487 5.224 11.711 11.71 11.711z" fill="#fff" opacity=".4"></path><path d="m386.61 384.414v-181.754h-272.6v181.754c0 8.161 6.616 14.777 14.777 14.777h243.046c8.161 0 14.777-6.616 14.777-14.777z" fill="#fffcff"></path><ellipse cx="135.459" cy="173.432" fill="#fffcff" rx="11.972" ry="11.972" transform="matrix(.707 -.707 .707 .707 -82.96 146.581)"></ellipse><ellipse cx="178.107" cy="173.432" fill="#fffcff" rx="11.972" ry="11.972" transform="matrix(.707 -.707 .707 .707 -70.469 176.738)"></ellipse><ellipse cx="220.755" cy="173.432" fill="#fffcff" rx="11.972" ry="11.972" transform="matrix(.707 -.707 .707 .707 -57.977 206.895)"></ellipse><path d="m377.133 173.432c0 4.959-4.02 8.979-8.979 8.979h-72.203c-4.959 0-8.979-4.02-8.979-8.979 0-4.959 4.02-8.979 8.979-8.979h72.203c4.959.001 8.979 4.021 8.979 8.979z" fill="#fffcff"></path><ellipse cx="174.636" cy="349.516" fill="#6acdf3" rx="93.937" ry="93.937" transform="matrix(.915 -.403 .403 .915 -125.907 99.849)"></ellipse><path d="m232.557 423.4c-39.95 31.404-97.805 25.34-130.344-14.052-33.049-40.031-27.394-99.216 12.6-132.264 5.789-4.777 11.976-8.722 18.409-11.869-.641.433-1.28.943-1.881 1.451-39.993 33.048-45.649 92.233-12.6 132.264 28.27 34.205 75.678 43.306 113.816 24.47z" fill="#fff" opacity=".4"></path><ellipse cx="174.636" cy="349.516" fill="#fffcff" rx="47.178" ry="93.937" transform="matrix(.771 -.637 .637 .771 -182.585 191.237)"></ellipse><ellipse cx="261.862" cy="275.778" fill="#ffc563" rx="42.812" ry="42.812" transform="matrix(.383 -.924 .924 .383 -93.134 412.171)"></ellipse><path d="m233.318 307.696c-1.664-1.511-3.26-3.172-4.72-4.974-14.876-18.364-12.063-45.339 6.301-60.216 18.383-14.892 45.355-12.044 60.231 6.32 1.46 1.802 2.753 3.708 3.886 5.65-15.374-13.782-38.914-14.759-55.495-1.327-16.563 13.416-20.493 36.646-10.203 54.547z" fill="#fff" opacity=".4"></path><g><path d="m236.672 299.689c-1.024 0-2.034-.443-2.729-1.299-6.03-7.444-8.8-16.805-7.796-26.357 1.003-9.551 5.653-18.133 13.097-24.163 1.51-1.226 3.715-.988 4.934.517s.986 3.712-.517 4.93c-5.992 4.852-9.734 11.758-10.539 19.448-.808 7.688 1.421 15.223 6.273 21.211 1.219 1.505.986 3.712-.517 4.93-.651.528-1.432.783-2.206.783z" fill="#fff"></path></g><path d="m270.109 288.827c-3.75 3.751-9.83 3.75-13.579-.001l-11.104-10.806c-3.837-3.734-3.879-9.886-.093-13.672l.054-.054c3.692-3.692 9.656-3.758 13.429-.148l4.504 4.309 28.856-28.389c3.75-3.75 9.829-3.75 13.58-.001 3.751 3.75 3.751 9.83.001 13.581z" fill="#fffcff"></path><g fill="#281261"><path d="m97.91 155.911v35.042c0 7.492 5.454 13.698 12.593 14.948v70.293c-39.509 34.535-44.624 94.657-11.001 135.374 34.224 41.433 95.76 47.292 137.184 13.079 7.731-6.384 14.312-13.789 19.64-21.951h115.506c10.08 0 18.284-8.202 18.284-18.282v-35.762c2.452 2.192 4.826 4.385 7.043 6.563 1.385 1.357 3.6 1.337 4.961-.045 1.356-1.382 1.335-3.6-.045-4.958-3.67-3.605-7.712-7.247-11.96-10.848v-133.462c7.141-1.248 12.597-7.455 12.597-14.948v-35.042c0-8.389-6.824-15.213-15.213-15.213h-274.376c-8.389 0-15.213 6.824-15.213 15.212zm16.662 126.387 55.127 66.749-30.901 25.522c-14.459-18.187-24.663-37.878-28.767-55.804-3.684-16.107-2.034-28.845 4.541-36.467zm110.255 21.218-13.377 11.048c-24.304-28.392-52.857-45.537-75.101-46.941 25.406-11.872 54.706-11.274 79.729 1.606-1.681 11.773 1.138 24.127 8.749 34.287zm38.456-39.946-2.044-1.957c-5.108-4.889-13.333-4.795-18.387.257-5.183 5.183-5.103 13.573.13 18.664l11.07 10.772c5.067 5.07 13.349 5.17 18.523.014l26.957-26.608c4.461 15.155-.452 31.5-12.936 41.611-16.846 13.639-41.645 11.039-55.283-5.8-13.641-16.842-11.039-41.644 5.804-55.286 13.066-10.586 31.839-12.047 46.733-1.899zm31.37-21.025c2.301-2.304 6.321-2.303 8.621-.002 2.415 2.411 2.348 6.279.017 8.606l-35.643 35.181c-.007.005-.01.01-.017.017-2.376 2.376-6.242 2.378-8.659-.033l-11.1-10.808c-2.345-2.281-2.575-6.163-.007-8.734 2.332-2.329 6.154-2.36 8.526-.092l4.503 4.309c1.366 1.308 3.53 1.294 4.883-.034zm-88.63 76.501-30.916 25.534-55.127-66.749c24.494-13.962 66.32 18.264 86.043 41.215zm-103.275 85.297c-24.664-32.313-24.267-76.524-1.116-108.2-3.64 27.551 14.233 60.87 31.759 82.892zm4.465 5.406 30.643-25.309c18.427 21.505 47.743 45.22 75.384 46.856-35.48 16.743-78.962 8.776-106.027-21.547zm36.05-29.775 30.901-25.522 55.128 66.749c-24.914 14.326-66.733-18.732-86.029-41.227zm91.419 36.74-55.11-66.728 30.9-25.521c27.997 35.285 38.434 75.638 24.21 92.249zm13.019-13.862c2.971-22.12-8.434-53.49-31.821-82.853l13.525-11.171c8.591 8.446 19.879 12.903 31.331 13.189 8.903 27.757 3.816 57.838-13.035 80.835zm135.403-18.437c0 6.214-5.057 11.27-11.272 11.27h-111.336c11.915-22.151 15.046-48.846 7.474-74.041 8.181-1.077 16.174-4.31 23.044-9.873 16.06-13.011 21.073-34.366 14.066-52.534l3.153-3.112c5.122-5.115 5.13-13.416 0-18.539-4.948-4.949-13.603-4.927-18.517-.019l-.733.721c-17.04-12.401-40.108-11.597-56.283 1.502-7.42 6.012-12.491 13.863-15.096 22.375-31.574-15.47-70.229-13.183-100.089 8.458v-64.456h265.588v178.248zm12.597-228.504v35.042c0 4.521-3.677 8.2-8.2 8.2-30.19 0-244.13 0-274.377 0-4.523 0-8.2-3.679-8.2-8.2v-35.042c0-4.521 3.677-8.2 8.2-8.2h274.376c4.523 0 8.201 3.679 8.201 8.2z"></path><path d="m135.457 188.909c8.536 0 15.48-6.944 15.48-15.478s-6.944-15.476-15.48-15.476c-8.532 0-15.476 6.942-15.476 15.476 0 8.535 6.944 15.478 15.476 15.478zm0-23.941c4.67 0 8.467 3.797 8.467 8.464 0 4.669-3.797 8.466-8.467 8.466-4.667 0-8.464-3.797-8.464-8.466 0-4.667 3.797-8.464 8.464-8.464z"></path><path d="m178.106 188.909c8.536 0 15.48-6.944 15.48-15.478s-6.944-15.476-15.48-15.476c-8.532 0-15.476 6.942-15.476 15.476 0 8.535 6.943 15.478 15.476 15.478zm0-23.941c4.67 0 8.467 3.797 8.467 8.464 0 4.669-3.797 8.466-8.467 8.466-4.667 0-8.464-3.797-8.464-8.466 0-4.667 3.797-8.464 8.464-8.464z"></path><path d="m220.754 188.909c8.536 0 15.48-6.944 15.48-15.478s-6.944-15.476-15.48-15.476c-8.532 0-15.476 6.942-15.476 15.476 0 8.535 6.944 15.478 15.476 15.478zm0-23.941c4.67 0 8.467 3.797 8.467 8.464 0 4.669-3.797 8.466-8.467 8.466-4.667 0-8.464-3.797-8.464-8.466 0-4.667 3.797-8.464 8.464-8.464z"></path><path d="m295.951 185.917h72.204c6.882 0 12.484-5.602 12.484-12.485 0-6.884-5.602-12.484-12.484-12.484h-72.204c-6.882 0-12.484 5.6-12.484 12.484 0 6.883 5.602 12.485 12.484 12.485zm0-17.957h72.204c3.016 0 5.471 2.455 5.471 5.471 0 3.018-2.455 5.473-5.471 5.473h-72.204c-3.016 0-5.471-2.455-5.471-5.473-.001-3.016 2.454-5.471 5.471-5.471z"></path><path d="m340.62 435.534c1.63.993 3.799.49 4.814-1.183 1.003-1.657.473-3.813-1.185-4.816-6.163-3.732-11.84-6.024-17.356-7.005-1.911-.351-3.725.933-4.064 2.837-.339 1.907.931 3.727 2.838 4.066 4.647.828 9.539 2.823 14.953 6.101z"></path><path d="m295.495 439.792c3.729-1.935 9.222-5.977 15.038-8.476 1.78-.765 2.602-2.826 1.839-4.605-.767-1.782-2.825-2.602-4.605-1.839-6.362 2.735-12.287 7.033-15.497 8.695-1.719.892-2.39 3.008-1.5 4.727.896 1.729 3.023 2.383 4.725 1.498z"></path><path d="m424.482 428.898c-1.859 4.633-4.887 9.988-8.378 13.927-1.284 1.448-1.15 3.664.298 4.949 1.449 1.282 3.664 1.152 4.948-.3 4.079-4.597 7.518-10.671 9.638-15.964.722-1.798-.151-3.84-1.948-4.561-1.802-.718-3.839.154-4.558 1.949z"></path><path d="m257.219 433.856c-.883 1.722-.202 3.835 1.52 4.718 1.566.64 7.851 4.977 18.085 5.379.045.002.092.003.14.003 1.873 0 3.427-1.481 3.499-3.367.075-1.936-1.431-3.566-3.366-3.641-8.473-.334-13.602-3.967-15.161-4.612-1.714-.885-3.833-.202-4.717 1.52z"></path><path d="m374.085 454.501c.948-1.69.346-3.826-1.346-4.773-4.855-2.719-9.546-6.285-13.939-9.705-1.53-1.192-3.732-.919-4.92.613-1.188 1.527-.914 3.73.613 4.92 4.602 3.585 9.539 7.332 14.822 10.291 1.687.944 3.827.343 4.77-1.346z"></path><path d="m431.196 416.643c.031.002.062.002.096.002 1.893 0 3.451-1.51 3.503-3.414-.045-.642.545-7.986-2.684-18.392-.572-1.847-2.53-2.886-4.386-2.309-1.852.574-2.886 2.539-2.311 4.388 2.823 9.095 2.337 15.67 2.369 16.128-.052 1.936 1.479 3.547 3.413 3.597z"></path><path d="m403.285 452.142c-4.761 2.025-10.195 3.034-15.456 2.599-1.948-.176-3.626 1.275-3.783 3.203-.161 1.929 1.27 3.624 3.201 3.785 6.46.542 13.023-.68 18.784-3.136 1.784-.758 2.612-2.818 1.852-4.6-.76-1.781-2.818-2.615-4.598-1.851z"></path><path d="m414.19 363.395c-1.222-1.498-3.438-1.721-4.934-.49-1.496 1.227-1.715 3.436-.49 4.934 3.821 4.662 7.108 9.329 9.775 13.87.991 1.686 3.15 2.219 4.797 1.248 1.671-.979 2.229-3.128 1.25-4.799-2.848-4.852-6.348-9.82-10.398-14.763z"></path><path d="m261.194 420.979-15.113 4.42c-1.859.544-2.927 2.491-2.383 4.35l4.42 15.113c.549 1.874 2.511 2.923 4.348 2.381 1.859-.544 2.927-2.491 2.383-4.35l-3.438-11.748 11.748-3.436c1.859-.544 2.927-2.491 2.383-4.35-.544-1.856-2.505-2.928-4.348-2.38z"></path></g></g></g><g id="Layer_1"></g></svg>