<svg xmlns="http://www.w3.org/2000/svg" viewBox="0 0 512 512"><g id="_x35_9_VIDEO_MARKETING"><g><path d="m199.702 469.791c68.537-58.644 86.312-28.892 139.514-12.58 45.53 13.96 98.429-2.491 129.201-38.835 64.927-76.683 20.712-200.788-86.392-219.739-25.947-4.591-54.927-2.911-75.62-19.225-26.304-20.737-26.479-59.605-37.65-91.182-20.989-59.327-92.204-95.568-152.52-77.619s-100.128 87.232-85.264 148.382c5.594 23.012 17.596 43.866 26.531 65.798 33.404 81.997-19.432 96.932-38.394 140.974-9.409 21.852-7.333 48.284 5.371 68.4 74.256 117.576 145.107 61.395 175.223 35.626z" fill="#ebf1fd"></path><path d="m369.699 215.418v146.983h-244.857v-146.983c0-9.741 7.897-17.638 17.638-17.638h209.581c9.741 0 17.638 7.897 17.638 17.638z" fill="#6acdf3"></path><path d="m166.84 197.769c-9.755 0-17.639 7.918-17.639 17.639v146.993h-24.354v-146.993c0-9.722 7.884-17.639 17.639-17.639z" fill="#fff" opacity=".4"></path><path d="m147.173 325.89v-90.149c0-7.831 6.348-14.18 14.18-14.18h170.385c7.831 0 14.18 6.348 14.18 14.18v90.149c0 7.831-6.348 14.18-14.18 14.18h-170.385c-7.832 0-14.18-6.349-14.18-14.18z" fill="#fffcff"></path><path d="m222.38 132.243v140.416c0 11.771 9.542 21.313 21.313 21.313h169.566c11.771 0 21.313-9.542 21.313-21.313v-140.416z" fill="#fffcff"></path><path d="m368.975 363.126 44.959 40.117h-336.505l44.959-40.117z" fill="#fffcff"></path><path d="m414.659 402.519c0 14.898-12.077 26.976-26.976 26.976h-282.554c-14.898 0-26.976-12.078-26.976-26.976z" fill="#6acdf3"></path><path d="m141.249 429.484h-36.114c-14.9 0-26.993-12.06-26.993-26.96h36.114c0 14.9 12.094 26.96 26.993 26.96z" fill="#fff" opacity=".4"></path><path d="m273.061 383.185 9.453 20.058h-73.665l9.453-20.058z" fill="#ffc563"></path><path d="m235.926 383.181-9.454 20.078h-17.639l9.454-20.078z" fill="#fff" opacity=".4"></path><path d="m434.571 133.694v-30.6c0-11.771-9.542-21.313-21.313-21.313h-169.565c-11.771 0-21.313 9.542-21.313 21.313v30.6z" fill="#6acdf3"></path><path d="m271.899 81.781c-11.76 0-21.303 9.542-21.303 21.303v30.598h-28.204v-30.598c0-11.761 9.542-21.303 21.303-21.303z" fill="#fff" opacity=".4"></path><path d="m395.225 163.696v59.893c0 7.012-5.684 12.696-12.696 12.696h-108.107c-7.012 0-12.696-5.684-12.696-12.696v-59.893c0-7.012 5.684-12.696 12.696-12.696h108.107c7.012 0 12.696 5.684 12.696 12.696z" fill="#ffc563"></path><path d="m291.857 236.286h-17.429c-7.036 0-12.714-5.678-12.714-12.679v-59.929c0-7 5.678-12.679 12.714-12.679h17.429c-7 0-12.679 5.679-12.679 12.679v59.929c.001 7 5.679 12.679 12.679 12.679z" fill="#fff" opacity=".4"></path><path d="m312.997 180.879v25.526c0 4.487 5.046 7.12 8.727 4.554l19.854-13.843c3.319-2.314 3.127-7.286-.36-9.338l-19.854-11.683c-3.701-2.178-8.367.49-8.367 4.784z" fill="#fffcff"></path><path d="m298.304 257.277v14.053c0 3.171-2.57 5.741-5.741 5.741h-10.285c-3.171 0-5.741-2.57-5.741-5.741v-14.053c0-3.171 2.57-5.741 5.741-5.741h10.285c3.17 0 5.741 2.57 5.741 5.741z" fill="#ffc563"></path><path d="m413.257 78.209h-169.563c-13.721 0-24.885 11.162-24.885 24.885v91.839h-77.054c-11.694 0-21.209 9.515-21.209 21.211v143.992c-1.215.745 4.048-3.653-45.497 40.444-1.14 1.023-1.097 2.523-1.181 2.907.132 16.732 13.773 30.305 30.537 30.305h282.555c16.76 0 30.401-13.574 30.533-30.305.002-.022.002-.043.003-.064 0-1.166-.514-2.241-1.184-2.842l-43.767-39.053v-63.983h40.712c13.721 0 24.885-11.162 24.885-24.883 0-57.156 0-138.486 0-169.566 0-13.725-11.164-24.887-24.885-24.887zm-169.563 219.334h98.65v28.346c0 5.849-4.757 10.608-10.606 10.608h-170.385c-5.849 0-10.61-4.759-10.61-10.608v-90.149c0-5.849 4.761-10.608 10.61-10.608h57.457v47.527c0 13.722 11.164 24.884 24.884 24.884zm143.266 129.105h-282.555c-11.691 0-21.411-8.616-23.134-19.833h328.819c-1.723 11.217-11.44 19.833-23.13 19.833zm-172.479-26.976 6.086-12.917h50.23l6.086 12.917zm70.296 0-8.486-18.011c-.589-1.25-1.849-2.049-3.23-2.049h-54.757c-1.381 0-2.64.799-3.23 2.049l-8.489 18.011h-119.789l36.952-32.975h243.865l36.952 32.975zm80.625-40.117h-237.713v-143.412c0-7.757 6.309-14.068 14.066-14.068h77.054v15.914h-57.457c-9.79 0-17.753 7.962-17.753 17.751v90.149c0 9.788 7.962 17.751 17.753 17.751h170.386c9.787 0 17.749-7.962 17.749-17.751v-28.346h15.914v62.012zm47.855-69.155h-169.563c-9.783 0-17.742-7.959-17.742-17.74v-135.395h205.047v135.395c0 9.781-7.959 17.74-17.742 17.74zm17.742-161.729h-205.047v-25.577c0-9.783 7.959-17.742 17.742-17.742h169.563c9.783 0 17.742 7.959 17.742 17.742z" fill="#281261"></path><path d="m274.421 239.858h108.109c8.97 0 16.267-7.298 16.267-16.268v-59.893c0-8.97-7.296-16.268-16.267-16.268h-108.109c-8.97 0-16.267 7.298-16.267 16.268v59.893c.001 8.97 7.297 16.268 16.267 16.268zm-9.124-76.162c0-5.031 4.095-9.126 9.124-9.126h108.109c5.029 0 9.124 4.095 9.124 9.126v59.893c0 5.031-4.095 9.126-9.124 9.126h-108.109c-5.029 0-9.124-4.095-9.124-9.126z" fill="#281261"></path><path d="m314.324 214.493c1.336.696 2.783 1.039 4.227 1.039 1.831 0 3.652-.553 5.218-1.644l19.852-13.843c2.56-1.786 4.018-4.715 3.899-7.835-.122-3.122-1.8-5.929-4.492-7.511l-19.856-11.682c-2.856-1.683-6.278-1.704-9.155-.058-2.877 1.644-4.593 4.606-4.593 7.919v25.527c0 3.411 1.876 6.51 4.9 8.088zm2.243-33.614c0-1.036.698-1.547.997-1.718.181-.103.541-.269.994-.269.296 0 .638.072.994.281l19.856 11.682c.841.495.963 1.304.973 1.631.014.324-.045 1.14-.848 1.7l-19.852 13.843c-.886.621-1.73.303-2.051.131-.321-.166-1.064-.671-1.064-1.754v-25.527z" fill="#281261"></path><path d="m407.91 260.732h-106.033v-3.455c0-5.134-4.178-9.312-9.316-9.312h-10.285c-5.134 0-9.312 4.178-9.312 9.312v3.455h-23.926c-1.974 0-3.571 1.599-3.571 3.571s1.597 3.571 3.571 3.571h23.926v3.456c0 5.134 4.178 9.312 9.312 9.312h10.285c5.137 0 9.316-4.178 9.316-9.312v-3.456h106.033c1.974 0 3.571-1.599 3.571-3.571.001-1.972-1.597-3.571-3.571-3.571zm-113.176 10.599c0 1.196-.973 2.169-2.173 2.169h-10.285c-1.196 0-2.169-.973-2.169-2.169v-14.054c0-1.196.973-2.169 2.169-2.169h10.285c1.2 0 2.173.973 2.173 2.169z" fill="#281261"></path><g fill="#fff"><path d="m368.429 412.436h-6.215c-1.974 0-3.571 1.599-3.571 3.571s1.597 3.571 3.571 3.571h6.215c1.974 0 3.571-1.599 3.571-3.571s-1.597-3.571-3.571-3.571z"></path><path d="m387.971 412.436h-6.215c-1.974 0-3.571 1.599-3.571 3.571s1.597 3.571 3.571 3.571h6.215c1.974 0 3.571-1.599 3.571-3.571s-1.597-3.571-3.571-3.571z"></path><path d="m253.941 104.166h-11.593c-1.974 0-3.571 1.599-3.571 3.571s1.597 3.571 3.571 3.571h11.593c1.974 0 3.571-1.599 3.571-3.571.001-1.972-1.597-3.571-3.571-3.571z"></path><path d="m285.606 107.738c0-1.972-1.597-3.571-3.571-3.571h-11.597c-1.974 0-3.571 1.599-3.571 3.571s1.597 3.571 3.571 3.571h11.597c1.974 0 3.571-1.599 3.571-3.571z"></path><path d="m313.697 107.738c0-1.972-1.597-3.571-3.571-3.571h-11.593c-1.974 0-3.571 1.599-3.571 3.571s1.597 3.571 3.571 3.571h11.593c1.973 0 3.571-1.599 3.571-3.571z"></path><path d="m380.94 202v-33.142c0-1.972-1.597-3.571-3.571-3.571h-12.367c-1.974 0-3.571 1.599-3.571 3.571s1.597 3.571 3.571 3.571h8.796v29.571c0 1.972 1.597 3.571 3.571 3.571s3.571-1.598 3.571-3.571z"></path></g></g></g><g id="Layer_1"></g></svg>