<svg xmlns="http://www.w3.org/2000/svg" viewBox="0 0 512 512"><g id="_x31_5_Video_Marketing"><g><path d="m199.702 469.791c68.537-58.644 86.312-28.892 139.514-12.58 45.53 13.96 98.429-2.491 129.201-38.835 64.927-76.683 20.712-200.788-86.392-219.739-25.947-4.591-54.927-2.911-75.62-19.225-26.304-20.737-26.479-59.605-37.65-91.182-20.989-59.327-92.204-95.568-152.52-77.619s-100.128 87.232-85.264 148.382c5.594 23.012 17.596 43.866 26.531 65.798 33.404 81.997-19.432 96.932-38.394 140.974-9.409 21.852-7.333 48.284 5.371 68.4 74.256 117.576 145.107 61.395 175.223 35.626z" fill="#ebf1fd"></path><path d="m392.254 370.323v-161.841c0-9.588-7.772-17.36-17.36-17.36h-229.595c-9.588 0-17.36 7.772-17.36 17.36v161.841z" fill="#6acdf3"></path><path d="m169.107 191.12c-9.579 0-17.345 7.767-17.345 17.378v161.836h-23.817v-161.836c0-9.611 7.766-17.378 17.345-17.378z" fill="#fff" opacity=".4"></path><path d="m151.751 214.932h216.692v131.577h-216.692z" fill="#fffcff"></path><path d="m409.756 377.198v2.322c0 18.001-14.592 32.593-32.593 32.593h-234.133c-18.001 0-32.593-14.592-32.593-32.593 0-5.08 4.118-9.197 9.197-9.197h283.246c3.798 0 6.876 3.078 6.876 6.875z" fill="#6acdf3"></path><path d="m161.858 412.112h-18.834c-17.993 0-32.587-14.595-32.587-32.587 0-2.524 1.036-4.854 2.686-6.505 1.65-1.65 3.98-2.686 6.505-2.686h18.834c-2.524 0-4.854 1.036-6.505 2.686-1.65 1.65-2.686 3.98-2.686 6.505 0 17.992 14.595 32.587 32.587 32.587z" fill="#fff" opacity=".4"></path><path d="m302.958 370.323-8.172 15.383c-1.802 3.392-5.329 5.512-9.169 5.512h-51.04c-3.841 0-7.368-2.12-9.17-5.512l-8.172-15.383z" fill="#fffcff"></path><g><path d="m353.272 394.789h-9.595c-1.974 0-3.571-1.599-3.571-3.571s1.597-3.571 3.571-3.571h9.595c1.974 0 3.571 1.599 3.571 3.571.001 1.972-1.597 3.571-3.571 3.571z" fill="#fff"></path></g><g><path d="m380.417 394.789h-9.595c-1.974 0-3.571-1.599-3.571-3.571s1.597-3.571 3.571-3.571h9.595c1.974 0 3.571 1.599 3.571 3.571.001 1.972-1.597 3.571-3.571 3.571z" fill="#fff"></path></g><path d="m315.501 253.826v53.803c0 8.018-6.5 14.518-14.518 14.518h-81.753c-8.018 0-14.518-6.5-14.518-14.518v-53.803c0-8.018 6.5-14.518 14.518-14.518h81.753c8.018 0 14.518 6.5 14.518 14.518z" fill="#ffc563"></path><path d="m239.418 322.134h-20.208c-7.991 0-14.518-6.485-14.518-14.518v-53.804c0-7.991 6.527-14.518 14.518-14.518h20.208c-7.991 0-14.518 6.527-14.518 14.518v53.804c0 8.033 6.526 14.518 14.518 14.518z" fill="#fff" opacity=".4"></path><path d="m247.439 267.32v26.815c0 5.907 6.703 9.319 11.479 5.843l18.422-13.408c3.965-2.886 3.965-8.8 0-11.686l-18.422-13.408c-4.776-3.475-11.479-.063-11.479 5.844z" fill="#fffcff"></path><path d="m185.791 179.06c0 29.874-24.273 54.147-54.216 54.147-29.874 0-54.146-24.273-54.146-54.147 0-29.943 24.273-54.216 54.146-54.216 29.943 0 54.216 24.272 54.216 54.216z" fill="#fffcff"></path><path d="m118.216 203.562v-35.366c5.125-6.303 8.825-13.157 11.327-20.477.462-1.351 1.701-2.278 3.129-2.278 4.187 0 7.117 4.138 5.727 8.087l-4.294 12.2h19.799c4.24 0 7.05 4.399 5.266 8.246l-7.544 26.119c-.981 2.115-3.101 3.469-5.432 3.469z" fill="#fffcff"></path><path d="m118.216 165.717v37.993c0 1.584-1.284 2.867-2.867 2.867h-8.979c-1.584 0-2.867-1.284-2.867-2.867v-37.993c0-1.584 1.284-2.867 2.867-2.867h8.979c1.584 0 2.867 1.284 2.867 2.867z" fill="#6acdf3"></path><ellipse cx="270.173" cy="120.64" fill="#ffc563" rx="47.086" ry="47.086" transform="matrix(.723 -.691 .691 .723 -8.542 219.966)"></ellipse><path d="m252.653 153.946c7.191 7.19 16.108 11.546 25.412 13.118-14.51 2.474-29.973-1.907-41.184-13.118-18.401-18.401-18.401-48.194 0-66.596 11.211-11.211 26.674-15.592 41.184-13.118-9.304 1.572-18.221 5.928-25.412 13.118-18.401 18.402-18.401 48.194 0 66.596z" fill="#fff" opacity=".4"></path><ellipse cx="270.173" cy="120.641" fill="#fffcff" rx="19.716" ry="19.716" transform="matrix(.723 -.691 .691 .723 -8.542 219.966)"></ellipse><g><path d="m294.354 148.394c-.914 0-1.828-.349-2.525-1.046-1.395-1.395-1.395-3.655 0-5.05 5.409-5.409 8.58-12.605 8.925-20.26.087-1.915 1.667-3.409 3.564-3.409.056 0 .112.002.164.003 1.971.089 3.498 1.76 3.408 3.73-.429 9.441-4.339 18.314-11.011 24.986-.697.697-1.611 1.046-2.525 1.046z" fill="#fff"></path></g><path d="m434.571 158.367v59.08c0 8.703-7.056 15.759-15.759 15.759h-59.08c-8.703 0-15.759-7.056-15.759-15.759v-59.08c0-8.703 7.056-15.759 15.759-15.759h59.08c8.704 0 15.759 7.056 15.759 15.759z" fill="#ffc563"></path><ellipse cx="389.272" cy="187.907" fill="#fffcff" rx="20.767" ry="20.767" transform="matrix(.23 -.973 .973 .23 116.956 523.594)"></ellipse><g><path d="m416.072 162.704h-1.507c-1.974 0-3.571-1.599-3.571-3.571s1.597-3.571 3.571-3.571h1.507c1.974 0 3.571 1.599 3.571 3.571.001 1.972-1.597 3.571-3.571 3.571z" fill="#fff"></path></g><g fill="#281261"><path d="m300.984 235.737h-81.756c-9.975 0-18.087 8.114-18.087 18.089v53.803c0 9.975 8.112 18.089 18.087 18.089h81.756c9.975 0 18.087-8.114 18.087-18.089v-53.803c.001-9.975-8.112-18.089-18.087-18.089zm10.945 71.892c0 6.035-4.911 10.946-10.944 10.946h-81.756c-6.034 0-10.944-4.911-10.944-10.946v-53.803c0-6.036 4.911-10.946 10.944-10.946h81.756c6.034 0 10.944 4.911 10.944 10.946z"></path><path d="m279.444 271.997-18.422-13.407c-7.13-5.195-17.153-.092-17.153 8.73v26.815c0 8.801 9.997 13.933 17.153 8.732l18.422-13.409c5.923-4.316 5.937-13.135 0-17.461zm-4.206 11.686-18.419 13.409c-2.418 1.763-5.807.04-5.807-2.956v-26.816c0-2.992 3.39-4.722 5.804-2.954l18.422 13.407c2.004 1.453 2.018 4.446 0 5.91z"></path><path d="m146.196 207.134c4.272 0 7.953-3.02 8.862-6.049l7.478-25.886c2.624-6.164-1.902-13.042-8.632-13.042h-14.753l2.619-7.445c2.203-6.264-2.455-12.842-9.096-12.842-2.93 0-5.549 1.885-6.512 4.694-1.711 5.006-4.041 9.708-6.895 14.08-1.089-.843-2.437-1.365-3.917-1.365h-8.981c-3.55 0-6.438 2.888-6.438 6.438v37.994c0 3.551 2.888 6.438 6.438 6.438h8.981c2.29 0 4.29-1.21 5.432-3.015zm-13.522-58.121c1.718 0 2.932 1.693 2.358 3.329l-4.293 12.2c-.384 1.093-.216 2.304.453 3.251.67.945 1.758 1.507 2.916 1.507h19.796c1.631 0 2.713 1.691 2.026 3.172-.181.391-1.593 5.406-7.642 26.31-.429.741-1.228 1.21-2.093 1.21h-24.407v-30.545c4.831-6.173 8.563-13.08 10.886-20.434zm-25.6 17.409h7.572v1.773 34.811h-7.572z"></path><path d="m310.196 59.879c-2.058.063-3.585 1.569-3.599 3.544l-.126 15.872-3.125 3.125c-20.076-17.477-50.142-16.452-68.99 2.4-19.754 19.751-19.754 51.889-.003 71.641 19.751 19.747 51.893 19.752 71.641 0 9.574-9.574 14.847-22.295 14.847-35.821 0-12.326-4.422-23.955-12.444-33.171l3.258-3.258 15.527.123h.028c1.96 0 3.557-1.58 3.571-3.544.014-1.972-1.569-3.584-3.544-3.599l-8.495-.068 5.021-5.021c1.395-1.395 1.395-3.655 0-5.05s-3.655-1.395-5.05 0l-5.042 5.042.068-8.617c.014-1.971-1.569-3.582-3.543-3.598zm3.501 60.761c0 11.618-4.531 22.546-12.755 30.77-16.964 16.964-44.57 16.964-61.541 0-16.964-16.968-16.964-44.575.003-61.541 16.278-16.278 41.887-16.864 58.89-2.4l-14.394 14.395c-9.105-6.663-21.977-5.908-30.192 2.311-9.107 9.103-9.108 23.828 0 32.933 9.08 9.077 23.849 9.079 32.931 0 8.218-8.219 8.97-21.089 2.311-30.193l14.395-14.395c6.684 7.856 10.352 17.702 10.352 28.12zm-32.108 11.417c-6.292 6.292-16.539 6.292-22.831 0-6.315-6.315-6.315-16.517 0-22.832 5.22-5.223 13.476-6.33 20.003-2.222l-11.113 11.112c-1.395 1.395-1.395 3.655 0 5.05s3.655 1.395 5.05 0l11.112-11.112c3.926 6.236 3.204 14.579-2.221 20.004z"></path><path d="m438.143 158.367c0-10.658-8.67-19.331-19.329-19.331h-59.082c-10.658 0-19.329 8.672-19.329 19.331v29.184h-151.737c.413-2.779.697-5.599.697-8.491 0-31.864-25.924-57.788-57.788-57.788-31.825 0-57.718 25.924-57.718 57.788 0 29.379 22.081 53.652 50.509 57.218v130.474h-4.733c-7.042 0-12.769 5.729-12.769 12.769 0 19.941 16.225 36.164 36.164 36.164h234.134c19.939 0 36.164-16.223 36.164-36.164-.131-.357 1.263-12.769-10.446-12.769h-7.056v-129.974h22.988c10.658 0 19.329-8.672 19.329-19.331v-59.08zm-78.411 78.411h5.141v106.161h-209.55v-111.319c6.954-3.147 13.16-7.626 18.323-13.116h166.81c.554 10.166 8.974 18.274 19.276 18.274zm-19.329-42.085v16.668h-160.963c3.421-5.041 6.015-10.667 7.71-16.668zm-259.403-15.633c0-27.926 22.688-50.645 50.575-50.645 27.926 0 50.645 22.719 50.645 50.645 0 27.888-22.719 50.575-50.645 50.575-27.888 0-50.575-22.687-50.575-50.575zm325.185 200.46c0 16.002-13.02 29.021-29.021 29.021h-234.135c-16.002 0-29.021-13.02-29.021-29.021 0-3.102 2.525-5.626 5.626-5.626h95.455l7.165 13.487c2.427 4.569 7.15 7.408 12.326 7.408h51.039c5.172 0 9.895-2.839 12.322-7.408l7.165-13.487h97.777c4.21 0 3.194 5.217 3.302 5.626zm-183.008-5.626h73.839l-5.382 10.135c-1.186 2.23-3.491 3.617-6.016 3.617h-51.039c-2.525 0-4.834-1.386-6.02-3.617zm165.506-7.142c-92.638 0-166.266 0-257.174 0v-129.977c.022 0 .044.003.066.003 5.773 0 11.341-.874 16.605-2.455v112.187c0 1.972 1.597 3.571 3.571 3.571h216.692c1.974 0 3.571-1.599 3.571-3.571v-109.732h16.668v129.974zm42.317-149.305c0 6.721-5.465 12.188-12.186 12.188h-59.082c-6.721 0-12.186-5.467-12.186-12.188v-59.08c0-6.721 5.465-12.188 12.186-12.188h59.082c6.721 0 12.186 5.467 12.186 12.188z"></path><path d="m389.273 163.569c-13.421 0-24.341 10.918-24.341 24.339 0 13.419 10.92 24.337 24.341 24.337s24.337-10.918 24.337-24.337c0-13.421-10.917-24.339-24.337-24.339zm0 41.534c-9.483 0-17.198-7.713-17.198-17.194s7.715-17.196 17.198-17.196c9.48 0 17.194 7.715 17.194 17.196 0 9.48-7.715 17.194-17.194 17.194z"></path></g></g></g><g id="Layer_1"></g></svg>