<svg xmlns="http://www.w3.org/2000/svg" viewBox="0 0 512 512"><g id="_x31_3_Video"><g><path d="m199.702 469.791c68.537-58.644 86.312-28.892 139.514-12.58 45.53 13.96 98.429-2.491 129.201-38.835 64.927-76.683 20.712-200.788-86.392-219.739-25.947-4.591-54.927-2.911-75.62-19.225-26.304-20.737-26.479-59.605-37.65-91.182-20.989-59.327-92.204-95.568-152.52-77.619s-100.128 87.232-85.264 148.382c5.594 23.012 17.596 43.866 26.531 65.798 33.404 81.997-19.432 96.932-38.394 140.974-9.409 21.852-7.333 48.284 5.371 68.4 74.256 117.576 145.107 61.395 175.223 35.626z" fill="#ebf1fd"></path><path d="m185.969 88.273h-30.692c-12.023 0-21.769 9.746-21.769 21.769v284.543c0 12.023 9.746 21.769 21.769 21.769h30.692z" fill="#ffc563"></path><path d="m355.227 110.042v284.543c0 12.023-9.746 21.769-21.769 21.769h-152.198c-12.023 0-21.769-9.746-21.769-21.769v-284.543c0-12.023 9.746-21.769 21.769-21.769h152.198c12.023 0 21.769 9.746 21.769 21.769z" fill="#6acdf3"></path><path d="m203.17 416.353h-21.917c-12.015 0-21.744-9.729-21.744-21.779v-284.544c0-12.015 9.73-21.744 21.744-21.744h21.917c-12.015 0-21.779 9.729-21.779 21.744v284.545c0 12.049 9.764 21.778 21.779 21.778z" fill="#fff" opacity=".4"></path><path d="m186.575 396.669c-4.07 0-7.399-3.33-7.399-7.399v-273.913c0-4.07 3.33-7.399 7.399-7.399h141.569c4.07 0 7.399 3.33 7.399 7.399v273.913c0 4.07-3.33 7.399-7.399 7.399z" fill="#fffcff"></path><path d="m302.109 107.958-4.846 15.669c-1.722 5.567-6.87 9.364-12.698 9.364h-54.412c-5.828 0-10.976-3.796-12.698-9.364l-4.846-15.669z" fill="#ffc563"></path><g><path d="m146.506 206.541c-1.972 0-3.571-1.599-3.571-3.571v-48.425c0-1.972 1.599-3.571 3.571-3.571s3.571 1.599 3.571 3.571v48.425c.001 1.972-1.598 3.571-3.571 3.571z" fill="#fff"></path></g><g><path d="m146.506 247.485c-1.972 0-3.571-1.599-3.571-3.571v-20.865c0-1.972 1.599-3.571 3.571-3.571s3.571 1.599 3.571 3.571v20.865c.001 1.972-1.598 3.571-3.571 3.571z" fill="#fff"></path></g><circle cx="257.359" cy="252.313" fill="#ffc563" r="53.805"></circle><path d="m265.498 305.495c-2.657.427-5.381.623-8.137.623-29.724 0-53.805-24.081-53.805-53.805s24.081-53.805 53.805-53.805c2.756 0 5.479.197 8.137.623-25.82 3.937-45.603 26.246-45.603 53.182 0 26.935 19.783 49.245 45.603 53.182z" fill="#fff" opacity=".4"></path><path d="m242.55 237.346v29.934c0 6.595 7.482 10.403 12.814 6.523l20.564-14.967c4.427-3.222 4.427-9.823 0-13.045l-20.564-14.967c-5.332-3.881-12.814-.072-12.814 6.522z" fill="#fffcff"></path><path d="m433.442 118.995c0 33.008-32.061 59.762-71.587 59.762-18.101 0-34.637-5.615-47.255-14.886l-23.407 8.83 8.874-23.539c-6.232-8.852-9.799-19.18-9.799-30.167 0-33.03 32.061-59.784 71.587-59.784s71.587 26.754 71.587 59.784z" fill="#fffcff"></path><path d="m78.558 170.873c0 28.818 27.991 52.176 62.499 52.176 15.803 0 30.24-4.902 41.256-12.996l20.436 7.709-7.748-20.551c5.441-7.728 8.555-16.745 8.555-26.338 0-28.837-27.991-52.195-62.499-52.195s-62.499 23.358-62.499 52.195z" fill="#fffcff"></path><path d="m348.771 148.552v-43.512c6.305-7.754 10.858-16.188 13.936-25.193.568-1.662 2.092-2.803 3.849-2.803 5.151 0 8.756 5.091 7.046 9.95l-5.282 15.01h24.359c5.217 0 8.673 5.412 6.478 10.145l-9.281 32.134c-1.207 2.602-3.815 4.268-6.683 4.268h-34.422z" fill="#fffcff"></path><path d="m348.771 101.991v46.744c0 1.948-1.579 3.528-3.528 3.528h-11.046c-1.948 0-3.528-1.579-3.528-3.528v-46.744c0-1.948 1.579-3.528 3.528-3.528h11.046c1.948 0 3.528 1.579 3.528 3.528z" fill="#6acdf3"></path><path d="m166.654 178.121v.01l-20.73 20.722c-2.688 2.687-7.046 2.687-9.734-.001l-20.721-20.721v-.01c-8.374-8.374-6.839-22.91 4.639-29.003 6.898-3.662 15.425-2.107 20.947 3.415l.011.011v-.01c7.066-7.066 18.531-7.066 25.587 0 7.068 7.066 7.068 18.521.001 25.587z" fill="#ffc563"></path><path d="m146.728 198.067-.795.795c-2.698 2.677-7.048 2.677-9.746 0l-20.726-20.726v-.021c-8.366-8.366-6.839-22.901 4.643-29.008 4.329-2.3 9.286-2.531 13.741-1.046-.816.293-1.631.627-2.405 1.046-11.482 6.107-13.009 20.642-4.643 29.008v.021z" fill="#fff" opacity=".4"></path><g fill="#281261"><path d="m257.36 309.689c31.637 0 57.377-25.739 57.377-57.377s-25.739-57.377-57.377-57.377c-31.639 0-57.378 25.739-57.378 57.377s25.739 57.377 57.378 57.377zm0-107.61c27.7 0 50.234 22.534 50.234 50.234s-22.534 50.234-50.234 50.234c-27.699 0-50.235-22.534-50.235-50.234s22.536-50.234 50.235-50.234z"></path><path d="m257.468 276.69 20.564-14.966c6.395-4.661 6.387-14.167 0-18.822l-20.564-14.966c-7.711-5.604-18.49-.08-18.49 9.41v29.933c0 9.532 10.837 14.98 18.49 9.411zm-11.347-39.343c0-3.675 4.165-5.808 7.141-3.634l20.564 14.966c2.465 1.795 2.478 5.465 0 7.27l-20.564 14.966c-2.967 2.166-7.141.053-7.141-3.634z"></path><path d="m74.987 170.872c0 27.535 23.806 50.412 54.949 54.894v168.817c0 13.974 11.368 25.342 25.34 25.342h178.183c13.972 0 25.338-11.368 25.338-25.34v-212.367c1.02.035 2.034.112 3.059.112 41.441 0 75.157-28.413 75.157-63.335 0-34.933-33.716-63.354-75.157-63.354-26.45 0-49.705 11.604-63.104 29.061-51.214 0-92.927 0-143.476 0-13.972 0-25.34 11.368-25.34 25.34v5.918c-31.143 4.483-54.949 27.368-54.949 54.912zm80.289 241.911c-10.034 0-18.197-8.165-18.197-18.199v-168.134c1.323.067 2.635.17 3.978.17 5.044 0 10.019-.531 14.863-1.474v169.44c0 7.139 2.98 13.587 7.747 18.197zm196.378-18.198c0 10.034-8.161 18.197-18.195 18.197h-152.199c-10.034 0-18.197-8.163-18.197-18.197v-171.152c4.38-1.305 8.568-3.036 12.542-5.096v170.933c0 6.049 4.921 10.971 10.971 10.971h141.568c6.048 0 10.969-4.921 10.969-10.971v-209.967c4.083 1.093 8.272 1.89 12.542 2.383v212.899zm-145.564-178.083-7.094-18.822c5.326-8.172 8.132-17.4 8.132-26.808 0-17.415-9.518-32.98-24.381-43.214v-12.301c0-2.11 1.718-3.828 3.828-3.828h23.4l4.069 13.152c2.197 7.106 8.672 11.881 16.108 11.881 57.016-.259 54.985.579 59.266-.735 1.567 4.8 3.778 9.444 6.652 13.813l-8.217 21.803c-.495 1.311-.174 2.794.816 3.784.994.991 2.476 1.313 3.784.816l21.624-8.156c5.453 3.786 11.494 6.838 17.892 9.176v212.207c0 2.11-1.716 3.828-3.826 3.828h-141.568c-2.11 0-3.828-1.718-3.828-3.828v-175.152c.028-.019.058-.035.085-.054l18.656 7.038c1.308.495 2.794.178 3.786-.816.993-.99 1.312-2.472.816-3.784zm81.566-87.595c-2.764.931-.809.328-57.503.512-4.286 0-8.018-2.752-9.284-6.848l-3.416-11.042h69.813c-.344 2.453-.57 4.936-.57 7.465-.001 3.336.347 6.646.96 9.913zm74.2-66.125c37.503 0 68.014 25.216 68.014 56.212 0 30.985-30.511 56.192-68.014 56.192-16.65 0-32.683-5.04-45.142-14.192-.986-.729-2.267-.884-3.373-.464l-16.019 6.042 6.086-16.152c.419-1.106.262-2.347-.422-3.315-5.985-8.501-9.148-18.222-9.148-28.113 0-30.993 30.514-56.21 68.018-56.21zm-67.806 29.062c-2.25 3.975-4.025 8.165-5.257 12.542-34.931 0-66.201 0-102.218 0-6.049 0-10.971 4.921-10.971 10.971v8.07c-3.931-2.047-8.124-3.751-12.542-5.074v-8.312c0-10.034 8.163-18.197 18.197-18.197zm-156.971 18.197c0-10.034 8.163-18.197 18.197-18.197h8.391c-4.767 4.61-7.747 11.058-7.747 18.197v6.539c-4.786-.934-9.746-1.475-14.863-1.475-1.343 0-2.655.103-3.978.17zm3.978 12.207c32.493 0 58.929 21.812 58.929 48.624 0 8.541-2.733 16.938-7.905 24.282-.68.968-.839 2.209-.42 3.315l4.961 13.164-13.048-4.923c-1.134-.427-2.398-.253-3.376.464-10.796 7.933-24.697 12.303-39.141 12.303-32.492 0-58.927-21.803-58.927-48.605 0-26.812 26.435-48.624 58.927-48.624z"></path><path d="m334.198 155.833h11.046c2.68 0 4.99-1.511 6.198-3.711h31.752c4.245 0 8.137-2.487 9.923-6.337.18-.385-.985 3.508 9.403-32.408 3.037-7.047-2.127-14.943-9.839-14.943h-19.319l3.61-10.254c2.522-7.171-2.81-14.706-10.414-14.706-3.258 0-6.163 2.098-7.23 5.218-2.23 6.523-5.273 12.648-9.056 18.296-1.286-1.293-3.064-2.095-5.027-2.095h-11.046c-3.917 0-7.101 3.184-7.101 7.099v46.742c-.001 3.915 3.183 7.099 7.1 7.099zm31.888-74.831c.059-.178.22-.385.471-.385 2.685 0 4.571 2.648 3.676 5.191l-5.284 15.011c-.384 1.093-.216 2.304.453 3.251.67.945 1.758 1.507 2.916 1.507h24.362c2.608 0 4.337 2.697 3.237 5.071-.18.385 1.009-3.59-9.382 32.338-.659 1.217-1.946 1.993-3.341 1.993h-30.852v-38.686c5.97-7.571 10.591-16.073 13.744-25.291zm-20.888 20.988c0 .358 0 .359 0 .002 0-.001 0-.001 0-.002zm0 .045v46.516c0 .049.026.09.028.14l-10.987.044-.042-46.699h11.001z"></path><path d="m112.944 180.657 20.721 20.722c4.075 4.072 10.709 4.076 14.784 0l20.731-20.721c.059-.059.115-.122.171-.185 8.276-8.459 8.219-22.076-.169-30.464-7.692-7.702-19.686-8.368-28.122-2.168-6.587-4.836-15.47-5.68-22.627-1.88-13.423 7.125-15.618 24.326-5.661 34.511.055.065.113.126.172.185zm8.838-28.385c5.376-2.849 12.261-1.702 16.76 2.797 1.443 1.445 3.778 1.367 5.137-.096 5.664-5.573 14.796-5.576 20.45.085 5.662 5.662 5.662 14.875 0 20.537-.054.054-.106.108-.155.166l-20.576 20.565c-1.287 1.29-3.39 1.294-4.684 0l-20.564-20.564c-.051-.058-.103-.113-.157-.167-6.799-6.799-5.423-18.432 3.789-23.323z"></path></g></g></g><g id="Layer_1"></g></svg>