<svg xmlns="http://www.w3.org/2000/svg" viewBox="0 0 512 512"><g id="_x32_0_Headphones"><g><path d="m396.902 357.927c8.25 0 16.169-3.497 21.727-9.594 5.611-6.156 8.384-14.463 7.611-22.79-1.69-18.233-6.75-36.683-15.035-54.839l-16.371 7.471c7.447 16.315 11.987 32.812 13.489 49.03.31 3.35-.753 6.548-2.993 9.007-2.188 2.4-5.181 3.722-8.428 3.722z" fill="#fffcff"></path><g><path d="m403.608 205.612c-.673 0-1.357-.19-1.964-.589-1.646-1.086-2.1-3.301-1.015-4.949.631-.956 1.263-2.501.673-4.429-3.979-13.077-9.724-25.607-17.065-37.24-1.053-1.667-.555-3.873 1.113-4.926 1.674-1.048 3.875-.553 4.928 1.114 7.683 12.172 13.693 25.284 17.861 38.972 1.465 4.824-.338 8.613-1.545 10.444-.687 1.04-1.824 1.603-2.986 1.603z" fill="#fff"></path></g><circle cx="402.519" cy="269.38" fill="#6acdf3" r="20.449"></circle><g><path d="m312.298 42.209c-68.537 58.644-86.312 28.892-139.514 12.58-45.53-13.96-98.429 2.491-129.201 38.835-64.927 76.683-20.712 200.788 86.392 219.739 25.947 4.591 54.927 2.911 75.62 19.225 26.304 20.737 26.479 59.605 37.65 91.182 20.989 59.327 92.204 95.568 152.52 77.619s100.127-87.232 85.263-148.381c-5.594-23.012-17.596-43.866-26.531-65.798-33.404-81.997 19.432-96.932 38.394-140.974 9.409-21.852 7.333-48.284-5.371-68.399-74.255-117.578-145.106-61.397-175.222-35.628z" fill="#ebf1fd"></path><path d="m195.888 289.283v119.295c0 8.198-6.646 14.844-14.844 14.844-8.198 0-14.844-6.646-14.844-14.844v-119.295c0-8.198 6.646-14.844 14.844-14.844 8.198 0 14.844 6.646 14.844 14.844z" fill="#fffcff"></path><path d="m166.199 290.947v115.966c-28.222 0-51.1-22.878-51.1-51.1v-13.765c0-28.222 22.878-51.101 51.1-51.101z" fill="#6acdf3"></path><path d="m126.678 342.065v13.75c0 14.107 5.714 26.893 14.964 36.143 6.643 6.643 15.107 11.464 24.571 13.643v1.321c-14.143 0-26.893-5.714-36.143-14.964s-14.964-22.036-14.964-36.143v-13.75c0-28.25 22.857-51.107 51.107-51.107v1.321c-22.677 5.214-39.535 25.5-39.535 49.786z" fill="#fff" opacity=".4"></path><path d="m115.098 357.927c-8.25 0-16.169-3.497-21.727-9.594-5.611-6.156-8.384-14.463-7.611-22.79 1.69-18.233 6.75-36.683 15.035-54.839l16.371 7.471c-7.447 16.315-11.987 32.812-13.489 49.03-.31 3.35.753 6.548 2.993 9.007 2.188 2.4 5.181 3.722 8.428 3.722z" fill="#fffcff"></path><path d="m316.112 289.283v119.295c0 8.198 6.646 14.844 14.844 14.844 8.198 0 14.844-6.646 14.844-14.844v-119.295c0-8.198-6.646-14.844-14.844-14.844-8.198 0-14.844 6.646-14.844 14.844z" fill="#fffcff"></path><path d="m345.801 290.947v115.966c28.222 0 51.1-22.878 51.1-51.1v-13.765c0-28.222-22.878-51.101-51.1-51.101z" fill="#6acdf3"></path><path d="m355.928 291.958v113.964c-3.286.643-6.679 1-10.143 1v-115.964c3.465 0 6.858.357 10.143 1z" fill="#fff" opacity=".4"></path><path d="m411.267 269.371h-17.993v-29.704c0-75.775-61.646-137.422-137.423-137.422s-137.423 61.646-137.423 137.422v29.704h-17.993v-29.704c0-85.696 69.72-155.415 155.416-155.415s155.416 69.719 155.416 155.415z" fill="#fffcff"></path><g><path d="m148.338 387.413c-.659 0-1.325-.181-1.922-.563-10.662-6.82-17.031-18.424-17.031-31.037v-13.764c0-1.972 1.597-3.571 3.571-3.571s3.571 1.599 3.571 3.571v13.764c0 10.165 5.134 19.519 13.738 25.021 1.66 1.062 2.145 3.271 1.085 4.933-.682 1.065-1.833 1.646-3.012 1.646z" fill="#fff"></path></g><path d="m112.925 223.904-.093-.01c-16.712-1.83-27.847-18.374-22.964-34.461 16.105-53.056 57.176-96.237 110.861-114.223 17.946-6.012 36.467-8.931 54.832-8.931 47.25 0 93.544 19.295 126.854 54.849 18.189 19.415 31.681 42.959 39.389 68.274 4.903 16.1-6.237 32.669-22.968 34.494-12.93 1.41-24.936-6.63-28.748-19.065-5.316-17.341-14.584-33.475-27.065-46.797-22.714-24.246-55.347-37.604-88.124-37.604-12.502 0-25.019 1.942-37.02 5.963-36.33 12.171-65.012 42.438-76.26 78.657-3.834 12.345-15.843 20.261-28.694 18.854z" fill="#ffc563"></path><path d="m304.357 73.279c-10.75-2.107-21.714-3.143-32.714-3.143-18.393 0-36.893 2.929-54.857 8.929-53.679 18-94.75 61.179-110.857 114.214-3.678 12.214 1.821 24.643 11.964 30.714-1.643.107-3.286.072-4.964-.107h-.107c-16.715-1.821-27.822-18.357-22.965-34.464 16.107-53.036 57.179-96.214 110.857-114.214 17.964-6 36.464-8.929 54.857-8.929 16.572 0 33 2.357 48.786 7z" fill="#fff" opacity=".4"></path><circle cx="108.336" cy="269.38" fill="#6acdf3" r="20.449"></circle><g fill="#281261"><path d="m111.808 361.324c2.66 26.45 24.266 47.334 50.995 48.988.889 9.332 8.681 16.681 18.24 16.681 10.153 0 18.415-8.261 18.415-18.415v-119.295c0-10.155-8.262-18.415-18.415-18.415-9.559 0-17.351 7.35-18.24 16.681-26.443 1.637-47.844 22.103-50.874 48.153-2.934-1.296-5.042-4.459-4.693-8.167 1.074-11.617 3.778-23.395 8.015-35.157 9.885-2.977 17.107-12.155 17.107-22.997 0-8.17-4.107-15.391-10.359-19.732.107-7.075-.355-12.174.699-22.893 10.333-2.408 19.039-10.047 22.33-20.646 14.121-45.453 56.751-82.108 109.87-82.108 51.47 0 96.598 32.378 111.775 81.876 3.281 10.699 11.968 18.494 22.336 20.932 1.036 10.509.579 14.799.694 22.292-6.72 4.263-11.203 11.749-11.203 20.279 0 11.27 7.808 20.724 18.292 23.303 4.173 11.656 6.907 23.33 7.974 34.852.216 2.337-.52 4.564-2.075 6.273-.749.823-1.638 1.462-2.618 1.894-3.03-26.05-24.431-46.516-50.874-48.153-.889-9.332-8.681-16.681-18.243-16.681-10.153 0-18.415 8.261-18.415 18.415v119.296c0 10.155 8.262 18.415 18.415 18.415 9.562 0 17.354-7.35 18.243-16.681 26.729-1.654 48.335-22.538 50.995-48.988 8.042-.812 15.585-4.564 21.077-10.584 6.285-6.897 9.392-16.2 8.527-25.527-1.24-13.377-4.286-26.861-9.023-40.26 3.586-4.198 5.765-9.631 5.765-15.573 0-8.739-4.706-16.379-11.701-20.583-.116-6.521.425-14.108-1.047-26.969 2.988-2.153 5.621-4.823 7.708-7.985 4.991-7.567 6.348-16.854 3.721-25.481-22.933-75.319-92.068-125.654-169.66-125.654-77.726 0-146.458 51.063-169.113 125.687-3.704 12.202.606 25.659 11.493 33.468-1.526 13.466-.953 20.212-1.079 26.421-7.468 4.078-12.545 12.005-12.545 21.096 0 6.411 2.539 12.229 6.645 16.541-4.539 13.082-7.549 26.237-8.762 39.293-1.667 18.05 11.376 34.27 29.608 36.108zm57.962-72.041c0-6.215 5.057-11.272 11.272-11.272s11.272 5.057 11.272 11.272v119.296c0 6.215-5.057 11.272-11.272 11.272s-11.272-5.057-11.272-11.272c0-115.784 0-52.9 0-119.296zm-51.098 52.765c0-25.007 19.409-45.564 43.956-47.396v108.557c-24.547-1.833-43.956-22.389-43.956-47.396zm223.559 66.53c0 6.215-5.057 11.272-11.276 11.272-6.215 0-11.272-5.057-11.272-11.272v-119.295c0-6.215 5.057-11.272 11.272-11.272 6.219 0 11.276 5.057 11.276 11.272zm7.143-5.369v-108.557c24.547 1.833 43.956 22.389 43.956 47.396v13.764c0 25.008-19.409 45.564-43.956 47.397zm66.616-57.282c-4.074 4.468-9.591 7.347-15.517 8.179v-11.021c2.863-.692 5.451-2.22 7.499-4.468 2.926-3.21 4.311-7.382 3.91-11.741-1.031-11.12-3.597-22.357-7.382-33.574 3.771-.31 7.287-1.498 10.366-3.353 4.024 11.981 6.715 24.003 7.817 35.926.683 7.328-1.758 14.639-6.693 20.052zm-13.47-59.668c-9.305 0-16.877-7.572-16.877-16.879 0-9.305 7.572-16.877 16.877-16.877s16.877 7.572 16.877 16.877c0 9.307-7.572 16.879-16.877 16.879zm5.176-40.323c-3.716-.82-7.223-.755-10.85.129-.064-3.798.263-8.783-.597-18.451 3.514-.037 6.909-.623 10.69-2.081 1.036 10.753.686 16.768.757 20.403zm-314.412-55.466c21.707-71.515 87.567-120.619 162.277-120.619 74.344 0 140.775 48.166 162.824 120.593 2.009 6.585.97 13.679-2.849 19.465-10.89 16.501-36.171 13.004-42.034-6.124-16.165-52.727-64.255-86.926-118.604-86.926-56.359 0-101.711 38.909-116.692 87.132-3.32 10.699-13.783 17.583-24.895 16.363l-.091-.01c-14.557-1.595-24.151-16-19.936-29.874zm11.449 35.06c3.916 1.512 7.144 2.033 10.696 2.082-.826 9.57-.492 13.472-.573 18.67-3.778-1.068-7.286-1.163-10.85-.511.077-4.158-.305-9.299.727-20.241zm3.604 26.973c9.305 0 16.877 7.572 16.877 16.877 0 9.307-7.572 16.879-16.877 16.879s-16.877-7.572-16.877-16.879c0-9.305 7.572-16.877 16.877-16.877zm-19.022 73.369c1.088-11.732 3.705-23.564 7.618-35.356 3.143 1.703 6.713 2.698 10.498 2.84-3.767 11.203-6.285 22.422-7.312 33.519-.735 7.931 4.544 14.551 11.405 16.207v11.023c-13.889-1.949-23.482-14.501-22.209-28.233z"></path><path d="m299.96 333.788c1.395-1.395 1.395-3.655 0-5.05-24.236-24.233-63.675-24.241-87.919.002-1.395 1.395-1.395 3.655 0 5.05s3.655 1.395 5.05 0c21.456-21.456 56.369-21.451 77.818-.002 1.396 1.395 3.656 1.395 5.051 0z"></path><path d="m283.25 350.494c1.395-1.393 1.395-3.655 0-5.05-15.033-15.04-39.462-15.039-54.503.002-1.395 1.395-1.395 3.655 0 5.05s3.655 1.395 5.05 0c12.244-12.248 32.153-12.251 44.402-.002 1.396 1.395 3.656 1.395 5.051 0z"></path><path d="m245.454 362.15c-1.395 1.395-1.395 3.655 0 5.052 1.394 1.394 3.653 1.395 5.05.002 3.024-3.027 7.959-3.033 10.99-.002 1.395 1.395 3.655 1.395 5.05 0s1.395-3.655 0-5.05c-5.81-5.814-15.273-5.813-21.09-.002z"></path></g></g></g></g><g id="Layer_1"></g></svg>