<svg xmlns="http://www.w3.org/2000/svg" viewBox="0 0 512 512"><g id="_x33_2_Www_Web"><g><path d="m311.269 465.231c-67.284-57.572-84.734-28.364-136.962-12.35-44.697 13.705-96.629-2.446-126.838-38.125-63.739-75.281-20.333-197.116 84.812-215.72 25.473-4.507 53.922-2.858 74.237-18.873 25.823-20.358 25.994-58.515 36.962-89.515 20.605-58.242 90.517-93.821 149.73-76.199s98.296 85.636 83.704 145.668c-5.491 22.591-17.275 43.064-26.046 64.595-32.793 80.497 19.076 95.159 37.692 138.396 9.237 21.453 7.199 47.401-5.273 67.149-72.898 115.425-142.453 60.271-172.018 34.974z" fill="#ebf1fd"></path><ellipse cx="235.999" cy="287.458" fill="#6acdf3" rx="139.487" ry="139.486" transform="matrix(.707 -.707 .707 .707 -134.141 251.071)"></ellipse><path d="m231.926 426.801c-75.426-2.105-135.698-63.981-135.418-139.85.305-77.082 62.978-139.259 140.016-138.989 11.145.046 21.953 1.421 32.285 3.939-1.143-.115-2.357-.14-3.526-.131-77.038-.27-139.711 61.907-140.016 138.989-.225 65.895 45.239 121.314 106.659 136.042z" fill="#fff" opacity=".4"></path><ellipse cx="235.999" cy="287.458" fill="#fffcff" rx="139.487" ry="70.055" transform="matrix(.004 -1 1 .004 -52.344 522.374)"></ellipse><g><path d="m337.634 229.862c-1.188 0-2.347-.603-3.005-1.695-4.734-7.841-10.448-15.154-16.986-21.745-1.363-1.373-1.354-3.595.021-4.958s3.593-1.356 4.958.021c6.93 6.985 12.99 14.743 18.01 23.06 1.001 1.657.469 3.811-1.19 4.814-.567.342-1.192.503-1.808.503z" fill="#fff"></path></g><path d="m313.983 246.565h-212.75c-9.279 0-16.802 7.522-16.802 16.802v48.173c0 9.279 7.522 16.802 16.802 16.802h212.75z" fill="#fffcff"></path><path d="m370.76 246.565h-56.778v81.776h56.778c9.279 0 16.802-7.522 16.802-16.802v-48.173c0-9.278-7.522-16.801-16.802-16.801z" fill="#ffc563"></path><path d="m313.986 246.567h17.216v81.766h-17.216z" fill="#fff" opacity=".4"></path><ellipse cx="353.182" cy="285.044" fill="#fffcff" rx="14.828" ry="14.828" transform="matrix(.475 -.88 .88 .475 -65.358 460.578)"></ellipse><path d="m360.259 489.779 12.624-45.892 45.893-12.623c11.562-3.18 11.782-19.497.31-22.988l-96.139-29.259c-9.159-2.788-17.721 5.774-14.934 14.933l29.258 96.139c3.491 11.472 19.808 11.252 22.988-.31z" fill="#ffc563"></path><path d="m360.047 490.325c-3.457 11.019-19.313 11.059-22.77-.244l-29.275-96.119c-2.765-9.189 5.774-17.728 14.963-14.963l1.749.529c-.773 2.236-.895 4.798-.122 7.36l29.275 96.119c1.097 3.578 3.415 6.017 6.18 7.318z" fill="#fff" opacity=".4"></path><g><path d="m367.521 427.783c-1.539 0-2.951-1.02-3.379-2.578-.514-1.866.585-3.797 2.452-4.307l18.027-4.954c1.878-.52 3.797.582 4.311 2.452.514 1.866-.585 3.797-2.452 4.307l-18.027 4.954c-.312.085-.625.126-.932.126z" fill="#fff"></path></g><g fill="#281261"><path d="m336.018 307.164 6.93-6.927c7.193 4.85 16.932 4.037 23.197-2.228 7.147-7.149 7.147-18.78 0-25.93-7.149-7.149-18.78-7.149-25.926 0-6.299 6.3-7.031 16.072-2.228 23.199l-6.931 6.928c-1.37 1.37-1.37 3.588 0 4.958 1.366 1.37 3.588 1.37 4.958 0zm9.159-30.127c4.408-4.405 11.583-4.424 16.01 0 4.413 4.413 4.413 11.6 0 16.014-4.417 4.41-11.6 4.407-16.01 0-4.414-4.414-4.414-11.601 0-16.014z"></path><path d="m158.105 262.766c-1.936 0-3.506 1.568-3.506 3.506l.002 26.09-7.284-16.11c-.567-1.257-1.818-2.061-3.195-2.061-1.378 0-2.628.808-3.195 2.061l-7.279 16.113-.002-26.094c0-1.938-1.57-3.506-3.506-3.506s-3.506 1.568-3.506 3.506l.005 42.361c0 1.654 1.154 3.082 2.768 3.427.247.055.495.079.74.079 1.354 0 2.618-.788 3.193-2.061l10.784-23.868 10.792 23.868c.68 1.503 2.306 2.342 3.934 1.982 1.614-.349 2.767-1.777 2.767-3.427l-.005-42.361c-.001-1.937-1.571-3.505-3.507-3.505z"></path><path d="m213.187 262.766c-1.936 0-3.506 1.568-3.506 3.506v26.09l-7.283-16.11c-.567-1.253-1.818-2.061-3.195-2.061-1.378 0-2.628.808-3.195 2.061l-7.279 16.113-.002-26.094c0-1.938-1.57-3.506-3.506-3.506s-3.506 1.568-3.506 3.506l.005 42.361c0 1.654 1.154 3.082 2.768 3.427.247.055.495.079.74.079 1.354 0 2.618-.788 3.193-2.061l10.784-23.868 10.791 23.868c.678 1.503 2.306 2.342 3.934 1.982 1.614-.349 2.767-1.777 2.767-3.427l-.003-42.361c0-1.937-1.57-3.505-3.507-3.505z"></path><path d="m268.268 262.766c-1.936 0-3.506 1.568-3.506 3.506l.002 26.09-7.284-16.11c-.567-1.257-1.818-2.061-3.195-2.061-1.378 0-2.628.808-3.195 2.061l-7.279 16.113-.002-26.094c0-1.938-1.57-3.506-3.506-3.506s-3.506 1.568-3.506 3.506l.005 42.361c0 1.654 1.154 3.082 2.768 3.427.247.055.495.079.74.079 1.354 0 2.618-.788 3.193-2.061l10.784-23.868 10.792 23.868c.681 1.503 2.304 2.342 3.934 1.982 1.614-.349 2.767-1.777 2.767-3.427l-.005-42.361c-.001-1.937-1.57-3.505-3.507-3.505z"></path><path d="m420.106 404.921-76.679-23.336c12.591-14.351 22.311-31.243 28.382-49.791 10.709-.551 19.259-9.412 19.259-20.254v-48.171c0-10.818-8.505-19.661-19.176-20.253-18.648-57.003-72.178-98.411-135.354-98.65h-.014-.13-.399c-63.321 0-117.188 41.423-135.904 98.65-10.667.597-19.168 9.438-19.168 20.253v48.171c0 10.807 8.494 19.646 19.154 20.249 18.634 57.016 72.197 98.422 135.382 98.661h.002.014.13.404c26.766 0 51.802-7.474 73.257-20.342l24.651 81c2.034 6.687 7.822 10.97 14.783 10.97h.229c7.062-.096 12.836-4.557 14.711-11.367l12.095-43.97 43.97-12.097c6.81-1.873 11.273-7.646 11.369-14.709.095-7.064-4.209-12.956-10.968-15.014zm-53.297-154.507h6.865c5.93 1.335 10.382 6.624 10.382 12.954v48.171c0 7.331-5.965 13.295-13.295 13.295h-53.271v-74.764h49.215c.032.115.071.228.104.344zm-2.344-7.356c-14.914 0-43.564 0-58.456 0-6.74-40.65-22.617-73.359-42.96-88.851 47.391 9.61 85.847 43.936 101.416 88.851zm-124.448-91.358c27.498 3.042 50.467 40.374 58.971 91.358h-59.315zm-30.056 2.31c-20.551 15.403-36.73 48.204-43.727 89.048h-58.701c15.687-45.276 54.619-79.73 102.428-89.048zm23.044-2.339-.344 91.387h-59.396c8.824-51.165 32.133-88.545 59.74-91.387zm-125.483 180.176h58.443c6.736 40.676 22.64 73.38 43.001 88.868-47.403-9.609-85.882-43.939-101.444-88.868zm124.461 91.368c-27.504-3.042-50.489-40.371-58.987-91.368h59.331zm-130.752-98.38c-7.331 0-13.295-5.965-13.295-13.295v-48.171c0-6.33 4.452-11.619 10.382-12.954h6.87c.033-.116.072-.229.105-.345h205.183v74.765zm138.108 7.012h59.408c-8.82 51.176-32.141 88.556-59.751 91.397zm69.183 47.675c-4.112 4.112-5.555 9.888-3.862 15.449l2.514 8.262c-13.818 8.502-28.996 14.42-44.966 17.546 20.478-15.457 36.604-48.185 43.578-88.932h58.702c-6.011 17.474-15.581 33.604-28.37 47.514l-12.149-3.697c-5.562-1.692-11.337-.251-15.447 3.858zm109.325 48.363-45.893 12.624c-1.192.325-2.123 1.257-2.452 2.448l-12.624 45.891c-1.243 4.523-4.97 6.177-8.043 6.218-3.104 0-6.844-1.513-8.211-5.999l-29.258-96.137c-.926-3.04-.137-6.201 2.113-8.447 2.189-2.191 5.328-3.064 8.447-2.109l96.139 29.258c4.485 1.363 6.038 5.136 5.997 8.207-.04 3.075-1.696 6.8-6.215 8.046z"></path></g></g></g><g id="Layer_1"></g></svg>